<svg xmlns="http://www.w3.org/2000/svg" width="150" height="150" viewBox="0 0 150 150" fill="none">
  <path
    transform="translate(75, 75) scale(4) translate(-17.5, -13.5)"
    fill="#AAAAAA"
    d="M4.5 1c.966 0 1.79.342 2.474 1.026A3.372 3.372 0 0 1 8 4.5c0 .966-.342 1.79-1.026 2.474A3.372 3.372 0 0 1 4.5 8c-.966 0-1.79-.342-2.474-1.026A3.372 3.372 0 0 1 1 4.5c0-.966.342-1.79 1.026-2.474A3.372 3.372 0 0 1 4.5 1zM16 6c1.38 0 2.68.223 3.901.67a9.402 9.402 0 0 1 3.187 1.918 9.009 9.009 0 0 1 2.133 3C25.74 12.757 26 14.06 26 15.5s-.26 2.744-.779 3.911a9.009 9.009 0 0 1-2.133 3.001 9.402 9.402 0 0 1-3.187 1.919c-1.22.446-2.52.669-3.901.669-1.38 0-2.68-.223-3.901-.67a9.402 9.402 0 0 1-3.187-1.918 9.009 9.009 0 0 1-2.133-3C6.26 18.243 6 16.94 6 15.5s.26-2.744.779-3.911a9.009 9.009 0 0 1 2.133-3.001 9.402 9.402 0 0 1 3.187-1.919C13.319 6.223 14.619 6 16 6zm0 5.107c-1.348 0-2.397.4-3.143 1.209-.748.81-1.118 1.873-1.118 3.184 0 1.311.37 2.373 1.118 3.184.746.81 1.795 1.21 3.143 1.21 1.348 0 2.397-.4 3.143-1.21.748-.81 1.118-1.873 1.118-3.184 0-1.311-.37-2.373-1.118-3.184-.746-.81-1.795-1.21-3.143-1.21zM31.5 12c.966 0 1.79.342 2.474 1.026A3.372 3.372 0 0 1 35 15.5c0 .966-.342 1.79-1.026 2.474A3.372 3.372 0 0 1 31.5 19c-.966 0-1.79-.342-2.474-1.026A3.372 3.372 0 0 1 28 15.5c0-.966.342-1.79 1.026-2.474A3.372 3.372 0 0 1 31.5 12z"
  />
</svg>
